<?xml version="1.0" encoding="UTF-8"?>
<svg id="Layer_2" xmlns="http://www.w3.org/2000/svg" version="1.1" viewBox="0 0 351.8 414.6">
  <!-- Generator: Adobe Illustrator 30.3.0, SVG Export Plug-In . SVG Version: 2.1.3 Build 182)  -->
  <defs>
    <style>
      .st0 {
        fill: #fff;
      }
    </style>
  </defs>
  <g id="Layer_1-2">
    <path class="st0" d="M351.8,337l-50.2,15.5-50.2,15.5-50.2,15.5-50.2,15.5-50.2,15.5v-52.6s0-52.6,0-52.6v-52.6s50.2-15.5,50.2-15.5l50.2-15.5,50.2-15.5v52.6s-50.2,15.5-50.2,15.5l-50.2,15.5v52.6s50.2-15.5,50.2-15.5l50.2-15.5,50.2-15.5v-52.6s0-52.6,0-52.6v-52.6s0-52.6,0-52.6l50.2-15.5v52.6s0,52.6,0,52.6v52.6s0,52.6,0,52.6v52.6s0,0,0,0ZM251.2,105.2v-52.6s0-52.6,0-52.6l-50.2,15.5-50.2,15.5-50.2,15.5-50.2,15.5L0,77.7v52.6s0,52.6,0,52.6v52.6s0,52.6,0,52.6v52.6s50.3-15.5,50.3-15.5v-52.6s0-52.6,0-52.6v-52.6s0-52.6,0-52.6l50.2-15.5,50.2-15.5,50.2-15.5v52.6s-50.2,15.5-50.2,15.5l-50.2,15.5v52.6s50.3-15.5,50.3-15.5l50.2-15.5,50.2-15.5v-52.6s0,0,0,0Z"/>
  </g>
</svg>